<mxfile host="app.diagrams.net" modified="2023-11-05T07:24:04.178Z" agent="Mozilla/5.0 (Windows NT 10.0; Win64; x64) AppleWebKit/537.36 (KHTML, like Gecko) Chrome/113.0.0.0 Safari/537.36" version="22.0.8" etag="i3YkweRM64zWaibe8vDr" type="github">
  <diagram name="第 1 页" id="_g-70danVEuGWQqPxAuo">
    <mxGraphModel>
      <root>
        <mxCell id="0" />
        <mxCell id="1" parent="0" />
      </root>
    </mxGraphModel>
  </diagram>
</mxfile>
